0
SECTION
2
HEADER
9
$INSUNITS
70
4
9
$ACADVER
1
AC1014
9
$HANDSEED
5
FFFF
0
ENDSEC
0
SECTION
2
TABLES
0
TABLE
2
VPORT
5
8
100
AcDbSymbolTable
0
ENDTAB
0
TABLE
2
LTYPE
5
5
100
AcDbSymbolTable
0
LTYPE
5
14
100
AcDbSymbolTableRecord
100
AcDbLinetypeTableRecord
2
BYBLOCK
70
0
0
LTYPE
5
15
100
AcDbSymbolTableRecord
100
AcDbLinetypeTableRecord
2
BYLAYER
70
0
0
ENDTAB
0
TABLE
2
LAYER
5
2
100
AcDbSymbolTable
70
2
0
LAYER
5
50
100
AcDbSymbolTableRecord
100
AcDbLayerTableRecord
2
0
70
0
6
CONTINUOUS
0
ENDTAB
0
TABLE
2
STYLE
5
3
100
AcDbSymbolTable
70
1
0
STYLE
5
11
100
AcDbSymbolTableRecord
100
AcDbTextStyleTableRecord
2
STANDARD
70
0
0
ENDTAB
0
TABLE
2
VIEW
5
6
100
AcDbSymbolTable
70
0
0
ENDTAB
0
TABLE
2
UCS
5
7
100
AcDbSymbolTable
70
0
0
ENDTAB
0
TABLE
2
APPID
5
9
100
AcDbSymbolTable
70
2
0
APPID
5
12
100
AcDbSymbolTableRecord
100
AcDbRegAppTableRecord
2
ACAD
70
0
0
ENDTAB
0
TABLE
2
DIMSTYLE
5
A
100
AcDbSymbolTable
70
1
0
ENDTAB
0
TABLE
2
BLOCK_RECORD
5
1
100
AcDbSymbolTable
70
1
0
BLOCK_RECORD
5
1F
100
AcDbSymbolTableRecord
100
AcDbBlockTableRecord
2
*MODEL_SPACE
0
BLOCK_RECORD
5
1B
100
AcDbSymbolTableRecord
100
AcDbBlockTableRecord
2
*PAPER_SPACE
0
ENDTAB
0
ENDSEC
0
SECTION
2
BLOCKS
0
BLOCK
5
20
100
AcDbEntity
100
AcDbBlockBegin
2
*MODEL_SPACE
0
ENDBLK
5
21
100
AcDbEntity
100
AcDbBlockEnd
0
BLOCK
5
1C
100
AcDbEntity
100
AcDbBlockBegin
2
*PAPER_SPACE
0
ENDBLK
5
1D
100
AcDbEntity
100
AcDbBlockEnd
0
ENDSEC
0
SECTION
2
ENTITIES
0
LINE
5
100
100
AcDbEntity
8
0
100
AcDbLine
10
1.0000000000000009
20
8.5
30
0
11
1.0000000000000009
21
-8.5
31
0
0
LINE
5
101
100
AcDbEntity
8
0
100
AcDbLine
10
20.399999999999999
20
8.5
30
0
11
20.399999999999999
21
-8.5
31
0
0
LINE
5
102
100
AcDbEntity
8
0
100
AcDbLine
10
-1.0000000000000009
20
8.5
30
0
11
-1.0000000000000009
21
-8.5
31
0
0
LINE
5
103
100
AcDbEntity
8
0
100
AcDbLine
10
-20.399999999999999
20
8.5
30
0
11
-20.399999999999999
21
-8.5
31
0
0
CIRCLE
5
104
100
AcDbEntity
8
0
100
AcDbCircle
10
-20.399999999999999
20
11.500000000000002
30
0
40
1
210
0
220
0
230
1
0
CIRCLE
5
105
100
AcDbEntity
8
0
100
AcDbCircle
10
-20.399999999999999
20
-21.127683134898678
30
0
40
1
210
0
220
0
230
1
0
LWPOLYLINE
5
106
100
AcDbEntity
8
0
100
AcDbPolyline
90
4
70
1
43
0.0
10
-18.400000000000002
20
-23.127683134898682
10
-22.400000000000002
20
-23.127683134898682
10
-22.400000000000002
20
13.5
10
-18.400000000000002
20
13.5
0
CIRCLE
5
107
100
AcDbEntity
8
0
100
AcDbCircle
10
20.399999999999999
20
11.500000000000002
30
0
40
1
210
0
220
-0
230
1
0
CIRCLE
5
108
100
AcDbEntity
8
0
100
AcDbCircle
10
20.399999999999999
20
-21.127683134898678
30
0
40
1
210
0
220
-0
230
1
0
LWPOLYLINE
5
109
100
AcDbEntity
8
0
100
AcDbPolyline
90
4
70
1
43
0.0
10
22.400000000000002
20
-23.127683134898682
10
18.400000000000002
20
-23.127683134898682
10
18.400000000000002
20
13.5
10
22.400000000000002
20
13.5
0
LWPOLYLINE
5
110
100
AcDbEntity
8
0
100
AcDbPolyline
90
4
70
1
43
0.0
10
0
20
-63.078234007279477
10
-9.8808144387965395
20
-67.912435702085972
10
-12.078178845526752
20
-63.421156411723885
10
-2.1973644067302156
20
-58.586954716917447
0
LWPOLYLINE
5
111
100
AcDbEntity
8
0
100
AcDbPolyline
90
4
70
1
43
0.0
10
-28.74772990502116
20
-40.221603527646188
10
-33.728703395479926
20
-39.785824813907908
10
-32.769990225255732
20
-28.827683134898688
10
-27.789016734796959
20
-29.263461848636979
0
LINE
5
112
100
AcDbEntity
8
0
100
AcDbLine
10
-1
20
-8.5
30
0
11
-20.399999999999999
21
-8.5
31
0
0
LINE
5
113
100
AcDbEntity
8
0
100
AcDbLine
10
-20.399999999999999
20
8.5
30
0
11
-1.0000000000000009
21
8.5
31
0
0
LINE
5
114
100
AcDbEntity
8
0
100
AcDbLine
10
0
20
1.75
30
0
11
0
21
22.5
31
0
0
LWPOLYLINE
5
115
100
AcDbEntity
8
0
100
AcDbPolyline
90
4
70
1
43
0.0
10
0
20
-63.078234007279477
10
9.8808144387965395
20
-67.912435702085972
10
12.078178845526752
20
-63.421156411723885
10
2.1973644067302156
20
-58.586954716917447
0
LWPOLYLINE
5
116
100
AcDbEntity
8
0
100
AcDbPolyline
90
4
70
1
43
0.0
10
27.789016734796959
20
-29.263461848636979
10
28.74772990502116
20
-40.221603527646188
10
33.728703395479926
20
-39.785824813907908
10
32.769990225255732
20
-28.827683134898688
0
LINE
5
117
100
AcDbEntity
8
0
100
AcDbLine
10
1
20
-8.5
30
0
11
20.399999999999999
21
-8.5
31
0
0
LINE
5
118
100
AcDbEntity
8
0
100
AcDbLine
10
1.0000000000000009
20
8.5
30
0
11
1.0000000000000009
21
-8.5
31
0
0
LINE
5
119
100
AcDbEntity
8
0
100
AcDbLine
10
20.399999999999999
20
8.5
30
0
11
1.0000000000000009
21
8.5
31
0
0
LINE
5
120
100
AcDbEntity
8
0
100
AcDbLine
10
20.399999999999999
20
8.5
30
0
11
20.399999999999999
21
-8.5
31
0
0
ENDSEC
0
SECTION
2
OBJECTS
0
DICTIONARY
5
C
100
AcDbDictionary
3
ACAD_GROUP
350
D
3
ACAD_MLINESTYLE
350
17
0
DICTIONARY
5
D
100
AcDbDictionary
0
DICTIONARY
5
1A
330
C
100
AcDbDictionary
0
DICTIONARY
5
17
100
AcDbDictionary
0
ENDSEC
0
EOF
